<mxfile host="Electron" agent="Mozilla/5.0 (Windows NT 10.0; Win64; x64) AppleWebKit/537.36 (KHTML, like Gecko) draw.io/28.0.6 Chrome/138.0.7204.100 Electron/37.2.3 Safari/537.36" version="28.0.6">
  <diagram name="Page-1" id="_Y_QgrqpyFHATyZcSUWF">
    <mxGraphModel dx="1188" dy="1871" grid="1" gridSize="10" guides="1" tooltips="1" connect="1" arrows="1" fold="1" page="1" pageScale="1" pageWidth="850" pageHeight="1100" math="0" shadow="0">
      <root>
        <mxCell id="0" />
        <mxCell id="1" parent="0" />
        <mxCell id="vao6jbNLkl4HTrQYK-bc-1" value="crm_cust_info" style="swimlane;fontStyle=0;childLayout=stackLayout;horizontal=1;startSize=30;horizontalStack=0;resizeParent=1;resizeParentMax=0;resizeLast=0;collapsible=1;marginBottom=0;whiteSpace=wrap;html=1;rounded=1;fillColor=#dae8fc;strokeColor=#6c8ebf;fontSize=20;" vertex="1" parent="1">
          <mxGeometry x="310" y="50" width="140" height="110" as="geometry" />
        </mxCell>
        <mxCell id="vao6jbNLkl4HTrQYK-bc-2" value="cst_id" style="text;strokeColor=none;fillColor=none;align=left;verticalAlign=middle;spacingLeft=4;spacingRight=4;overflow=hidden;points=[[0,0.5],[1,0.5]];portConstraint=eastwest;rotatable=0;whiteSpace=wrap;html=1;fontSize=20;" vertex="1" parent="vao6jbNLkl4HTrQYK-bc-1">
          <mxGeometry y="30" width="140" height="40" as="geometry" />
        </mxCell>
        <mxCell id="vao6jbNLkl4HTrQYK-bc-26" value="cst_key" style="text;strokeColor=none;fillColor=none;align=left;verticalAlign=middle;spacingLeft=4;spacingRight=4;overflow=hidden;points=[[0,0.5],[1,0.5]];portConstraint=eastwest;rotatable=0;whiteSpace=wrap;html=1;fontSize=20;" vertex="1" parent="vao6jbNLkl4HTrQYK-bc-1">
          <mxGeometry y="70" width="140" height="40" as="geometry" />
        </mxCell>
        <mxCell id="vao6jbNLkl4HTrQYK-bc-5" value="Customer Information" style="text;html=1;align=center;verticalAlign=middle;whiteSpace=wrap;rounded=0;" vertex="1" parent="1">
          <mxGeometry x="315" y="20" width="130" height="30" as="geometry" />
        </mxCell>
        <mxCell id="vao6jbNLkl4HTrQYK-bc-6" value="crm_prd_info" style="swimlane;fontStyle=0;childLayout=stackLayout;horizontal=1;startSize=30;horizontalStack=0;resizeParent=1;resizeParentMax=0;resizeLast=0;collapsible=1;marginBottom=0;whiteSpace=wrap;html=1;rounded=1;fillColor=#dae8fc;strokeColor=#6c8ebf;fontSize=20;" vertex="1" parent="1">
          <mxGeometry x="310" y="340" width="140" height="70" as="geometry" />
        </mxCell>
        <mxCell id="vao6jbNLkl4HTrQYK-bc-7" value="prd_key" style="text;strokeColor=none;fillColor=none;align=left;verticalAlign=middle;spacingLeft=4;spacingRight=4;overflow=hidden;points=[[0,0.5],[1,0.5]];portConstraint=eastwest;rotatable=0;whiteSpace=wrap;html=1;fontSize=20;" vertex="1" parent="vao6jbNLkl4HTrQYK-bc-6">
          <mxGeometry y="30" width="140" height="40" as="geometry" />
        </mxCell>
        <mxCell id="vao6jbNLkl4HTrQYK-bc-8" value="Current and History Product Information" style="text;html=1;align=center;verticalAlign=middle;whiteSpace=wrap;rounded=0;" vertex="1" parent="1">
          <mxGeometry x="315" y="310" width="130" height="30" as="geometry" />
        </mxCell>
        <mxCell id="vao6jbNLkl4HTrQYK-bc-9" value="crm_sales_details" style="swimlane;fontStyle=0;childLayout=stackLayout;horizontal=1;startSize=30;horizontalStack=0;resizeParent=1;resizeParentMax=0;resizeLast=0;collapsible=1;marginBottom=0;whiteSpace=wrap;html=1;rounded=1;fillColor=#dae8fc;strokeColor=#6c8ebf;fontSize=20;" vertex="1" parent="1">
          <mxGeometry x="40" y="180" width="180" height="110" as="geometry" />
        </mxCell>
        <mxCell id="vao6jbNLkl4HTrQYK-bc-10" value="cst_id" style="text;strokeColor=none;fillColor=none;align=left;verticalAlign=middle;spacingLeft=4;spacingRight=4;overflow=hidden;points=[[0,0.5],[1,0.5]];portConstraint=eastwest;rotatable=0;whiteSpace=wrap;html=1;fontSize=20;" vertex="1" parent="vao6jbNLkl4HTrQYK-bc-9">
          <mxGeometry y="30" width="180" height="40" as="geometry" />
        </mxCell>
        <mxCell id="vao6jbNLkl4HTrQYK-bc-12" value="prd_key" style="text;strokeColor=none;fillColor=none;align=left;verticalAlign=middle;spacingLeft=4;spacingRight=4;overflow=hidden;points=[[0,0.5],[1,0.5]];portConstraint=eastwest;rotatable=0;whiteSpace=wrap;html=1;fontSize=20;" vertex="1" parent="vao6jbNLkl4HTrQYK-bc-9">
          <mxGeometry y="70" width="180" height="40" as="geometry" />
        </mxCell>
        <mxCell id="vao6jbNLkl4HTrQYK-bc-11" value="Transactional Records about Sales and Orders" style="text;html=1;align=center;verticalAlign=middle;whiteSpace=wrap;rounded=0;" vertex="1" parent="1">
          <mxGeometry x="65" y="150" width="130" height="30" as="geometry" />
        </mxCell>
        <mxCell id="vao6jbNLkl4HTrQYK-bc-13" style="edgeStyle=orthogonalEdgeStyle;rounded=0;orthogonalLoop=1;jettySize=auto;html=1;entryX=-0.01;entryY=0.092;entryDx=0;entryDy=0;entryPerimeter=0;" edge="1" parent="1" source="vao6jbNLkl4HTrQYK-bc-10" target="vao6jbNLkl4HTrQYK-bc-2">
          <mxGeometry relative="1" as="geometry" />
        </mxCell>
        <mxCell id="vao6jbNLkl4HTrQYK-bc-21" style="edgeStyle=orthogonalEdgeStyle;rounded=0;orthogonalLoop=1;jettySize=auto;html=1;entryX=0.019;entryY=0.825;entryDx=0;entryDy=0;entryPerimeter=0;" edge="1" parent="1" source="vao6jbNLkl4HTrQYK-bc-10" target="vao6jbNLkl4HTrQYK-bc-7">
          <mxGeometry relative="1" as="geometry" />
        </mxCell>
        <mxCell id="vao6jbNLkl4HTrQYK-bc-22" value="erp_cust_az12" style="swimlane;fontStyle=0;childLayout=stackLayout;horizontal=1;startSize=30;horizontalStack=0;resizeParent=1;resizeParentMax=0;resizeLast=0;collapsible=1;marginBottom=0;whiteSpace=wrap;html=1;rounded=1;fillColor=#fff2cc;strokeColor=#d6b656;fontSize=20;" vertex="1" parent="1">
          <mxGeometry x="570" y="215" width="140" height="70" as="geometry" />
        </mxCell>
        <mxCell id="vao6jbNLkl4HTrQYK-bc-23" value="cid" style="text;strokeColor=none;fillColor=none;align=left;verticalAlign=middle;spacingLeft=4;spacingRight=4;overflow=hidden;points=[[0,0.5],[1,0.5]];portConstraint=eastwest;rotatable=0;whiteSpace=wrap;html=1;fontSize=20;" vertex="1" parent="vao6jbNLkl4HTrQYK-bc-22">
          <mxGeometry y="30" width="140" height="40" as="geometry" />
        </mxCell>
        <mxCell id="vao6jbNLkl4HTrQYK-bc-24" value="Extra Information of Customer(Birthdate)" style="text;html=1;align=center;verticalAlign=middle;whiteSpace=wrap;rounded=0;" vertex="1" parent="1">
          <mxGeometry x="575" y="185" width="130" height="30" as="geometry" />
        </mxCell>
        <mxCell id="vao6jbNLkl4HTrQYK-bc-27" style="edgeStyle=orthogonalEdgeStyle;rounded=0;orthogonalLoop=1;jettySize=auto;html=1;entryX=1;entryY=0.5;entryDx=0;entryDy=0;" edge="1" parent="1" source="vao6jbNLkl4HTrQYK-bc-23" target="vao6jbNLkl4HTrQYK-bc-26">
          <mxGeometry relative="1" as="geometry" />
        </mxCell>
        <mxCell id="vao6jbNLkl4HTrQYK-bc-31" style="edgeStyle=orthogonalEdgeStyle;rounded=0;orthogonalLoop=1;jettySize=auto;html=1;entryX=1;entryY=0.5;entryDx=0;entryDy=0;" edge="1" parent="1" source="vao6jbNLkl4HTrQYK-bc-28" target="vao6jbNLkl4HTrQYK-bc-26">
          <mxGeometry relative="1" as="geometry" />
        </mxCell>
        <mxCell id="vao6jbNLkl4HTrQYK-bc-28" value="erp_loc_a101" style="swimlane;fontStyle=0;childLayout=stackLayout;horizontal=1;startSize=30;horizontalStack=0;resizeParent=1;resizeParentMax=0;resizeLast=0;collapsible=1;marginBottom=0;whiteSpace=wrap;html=1;rounded=1;fillColor=#fff2cc;strokeColor=#d6b656;fontSize=20;" vertex="1" parent="1">
          <mxGeometry x="570" y="40" width="140" height="70" as="geometry" />
        </mxCell>
        <mxCell id="vao6jbNLkl4HTrQYK-bc-29" value="cid" style="text;strokeColor=none;fillColor=none;align=left;verticalAlign=middle;spacingLeft=4;spacingRight=4;overflow=hidden;points=[[0,0.5],[1,0.5]];portConstraint=eastwest;rotatable=0;whiteSpace=wrap;html=1;fontSize=20;" vertex="1" parent="vao6jbNLkl4HTrQYK-bc-28">
          <mxGeometry y="30" width="140" height="40" as="geometry" />
        </mxCell>
        <mxCell id="vao6jbNLkl4HTrQYK-bc-30" value="Location of customers(Country)" style="text;html=1;align=center;verticalAlign=middle;whiteSpace=wrap;rounded=0;" vertex="1" parent="1">
          <mxGeometry x="575" y="10" width="130" height="30" as="geometry" />
        </mxCell>
        <mxCell id="vao6jbNLkl4HTrQYK-bc-32" value="erp_px_cat_g1v2" style="swimlane;fontStyle=0;childLayout=stackLayout;horizontal=1;startSize=30;horizontalStack=0;resizeParent=1;resizeParentMax=0;resizeLast=0;collapsible=1;marginBottom=0;whiteSpace=wrap;html=1;rounded=1;fillColor=#fff2cc;strokeColor=#d6b656;fontSize=20;" vertex="1" parent="1">
          <mxGeometry x="570" y="400" width="160" height="70" as="geometry" />
        </mxCell>
        <mxCell id="vao6jbNLkl4HTrQYK-bc-33" value="id" style="text;strokeColor=none;fillColor=none;align=left;verticalAlign=middle;spacingLeft=4;spacingRight=4;overflow=hidden;points=[[0,0.5],[1,0.5]];portConstraint=eastwest;rotatable=0;whiteSpace=wrap;html=1;fontSize=20;" vertex="1" parent="vao6jbNLkl4HTrQYK-bc-32">
          <mxGeometry y="30" width="160" height="40" as="geometry" />
        </mxCell>
        <mxCell id="vao6jbNLkl4HTrQYK-bc-34" value="Product Category" style="text;html=1;align=center;verticalAlign=middle;whiteSpace=wrap;rounded=0;" vertex="1" parent="1">
          <mxGeometry x="575" y="370" width="130" height="30" as="geometry" />
        </mxCell>
        <mxCell id="vao6jbNLkl4HTrQYK-bc-36" style="edgeStyle=orthogonalEdgeStyle;rounded=0;orthogonalLoop=1;jettySize=auto;html=1;entryX=1;entryY=0.308;entryDx=0;entryDy=0;entryPerimeter=0;" edge="1" parent="1" source="vao6jbNLkl4HTrQYK-bc-32" target="vao6jbNLkl4HTrQYK-bc-7">
          <mxGeometry relative="1" as="geometry" />
        </mxCell>
        <mxCell id="vao6jbNLkl4HTrQYK-bc-38" value="" style="rounded=1;whiteSpace=wrap;html=1;fillColor=none;dashed=1;strokeColor=#6c8ebf;strokeWidth=3;dashPattern=1 2;" vertex="1" parent="1">
          <mxGeometry x="20" width="500" height="480" as="geometry" />
        </mxCell>
        <mxCell id="vao6jbNLkl4HTrQYK-bc-39" value="&lt;b&gt;&lt;font style=&quot;font-size: 16px;&quot;&gt;CRM&lt;/font&gt;&lt;/b&gt;" style="text;html=1;align=center;verticalAlign=middle;whiteSpace=wrap;rounded=0;fillColor=#dae8fc;strokeColor=#6c8ebf;" vertex="1" parent="1">
          <mxGeometry x="210" y="-10" width="120" height="30" as="geometry" />
        </mxCell>
        <mxCell id="vao6jbNLkl4HTrQYK-bc-40" value="" style="rounded=1;whiteSpace=wrap;html=1;fillColor=none;dashed=1;strokeColor=#d6b656;strokeWidth=3;dashPattern=1 2;" vertex="1" parent="1">
          <mxGeometry x="540" width="220" height="530" as="geometry" />
        </mxCell>
        <mxCell id="vao6jbNLkl4HTrQYK-bc-41" value="&lt;b&gt;&lt;font style=&quot;font-size: 16px;&quot;&gt;ERP&lt;/font&gt;&lt;/b&gt;" style="text;html=1;align=center;verticalAlign=middle;whiteSpace=wrap;rounded=0;fillColor=#fff2cc;strokeColor=#d6b656;" vertex="1" parent="1">
          <mxGeometry x="580" y="-10" width="120" height="30" as="geometry" />
        </mxCell>
        <mxCell id="vao6jbNLkl4HTrQYK-bc-42" value="&lt;b&gt;&lt;font style=&quot;font-size: 22px;&quot;&gt;Integration Model(How Tables are related&lt;/font&gt;&lt;/b&gt;)" style="text;html=1;align=center;verticalAlign=middle;whiteSpace=wrap;rounded=0;" vertex="1" parent="1">
          <mxGeometry x="195" y="-130" width="440" height="30" as="geometry" />
        </mxCell>
        <mxCell id="vao6jbNLkl4HTrQYK-bc-43" value="&lt;font style=&quot;font-size: 18px;&quot;&gt;SALES&lt;/font&gt;" style="rounded=1;whiteSpace=wrap;html=1;fillColor=#e1d5e7;strokeColor=#9673a6;" vertex="1" parent="1">
          <mxGeometry x="40" y="290" width="180" height="30" as="geometry" />
        </mxCell>
        <mxCell id="vao6jbNLkl4HTrQYK-bc-44" value="&lt;font style=&quot;font-size: 18px;&quot;&gt;CUSTOMER&lt;/font&gt;" style="rounded=1;whiteSpace=wrap;html=1;fillColor=#d5e8d4;strokeColor=#82b366;" vertex="1" parent="1">
          <mxGeometry x="310" y="160" width="140" height="30" as="geometry" />
        </mxCell>
        <mxCell id="vao6jbNLkl4HTrQYK-bc-45" value="&lt;font style=&quot;font-size: 18px;&quot;&gt;PRODUCT&lt;/font&gt;" style="rounded=1;whiteSpace=wrap;html=1;fillColor=#d80073;strokeColor=#A50040;fontColor=#ffffff;" vertex="1" parent="1">
          <mxGeometry x="310" y="410" width="140" height="30" as="geometry" />
        </mxCell>
        <mxCell id="vao6jbNLkl4HTrQYK-bc-46" value="&lt;font style=&quot;font-size: 18px;&quot;&gt;CUSTOMER&lt;/font&gt;" style="rounded=1;whiteSpace=wrap;html=1;fillColor=#d5e8d4;strokeColor=#82b366;" vertex="1" parent="1">
          <mxGeometry x="570" y="110" width="140" height="20" as="geometry" />
        </mxCell>
        <mxCell id="vao6jbNLkl4HTrQYK-bc-47" value="&lt;font style=&quot;font-size: 18px;&quot;&gt;CUSTOMER&lt;/font&gt;" style="rounded=1;whiteSpace=wrap;html=1;fillColor=#d5e8d4;strokeColor=#82b366;" vertex="1" parent="1">
          <mxGeometry x="570" y="285" width="140" height="35" as="geometry" />
        </mxCell>
        <mxCell id="vao6jbNLkl4HTrQYK-bc-48" value="&lt;font style=&quot;font-size: 18px;&quot;&gt;PRODUCT&lt;/font&gt;" style="rounded=1;whiteSpace=wrap;html=1;fillColor=#d80073;strokeColor=#A50040;fontColor=#ffffff;" vertex="1" parent="1">
          <mxGeometry x="570" y="470" width="160" height="35" as="geometry" />
        </mxCell>
      </root>
    </mxGraphModel>
  </diagram>
</mxfile>
